<svg xmlns="http://www.w3.org/2000/svg" viewBox="0 0 128 128" width="128" height="128" style="shape-rendering: crispEdges">
  <rect width="128" height="128" fill="#f2e1b3"/>
  <ellipse cx="64" cy="122" rx="40" ry="6" fill="#0d0d0d"/>
  <rect x="5" y="45" width="32" height="48" fill="#0d0d0d"/>
  <rect x="75" y="15" width="10" height="28" fill="#0d0d0d"/>
  <rect x="39" y="51" width="50" height="42" fill="#0d0d0d"/>
  <rect x="43" y="17" width="42" height="38" fill="#0d0d0d"/>
  <rect x="43" y="89" width="44" height="30" fill="#0d0d0d"/>
  <rect x="44" y="90" width="18" height="28" fill="#d6453d"/>
  <rect x="66" y="90" width="18" height="28" fill="#b32e26"/>
  <rect x="42" y="54" width="44" height="36" fill="#d6453d"/>
  <rect x="44" y="58" width="40" height="30" fill="#b32e26"/>
  <rect x="46" y="62" width="36" height="24" fill="#e0b44c"/>
  <rect x="46" y="62" width="36" height="2" fill="#f0d878"/>
  <rect x="8" y="48" width="26" height="42" fill="#1b1b1b"/>
  <rect x="10" y="50" width="22" height="38" fill="#6b3f1f"/>
  <rect x="12" y="52" width="18" height="34" fill="#a86b3a"/>
  <rect x="12" y="52" width="18" height="2" fill="#c4956a"/>
  <rect x="14" y="64" width="14" height="4" fill="#0d0d0d"/>
  <rect x="32" y="68" width="22" height="8" fill="#1b1b1b"/>
  <rect x="34" y="70" width="18" height="4" fill="#6b3f1f"/>
  <rect x="18" y="58" width="2" height="18" fill="#1b1b1b"/>
  <rect x="20" y="60" width="2" height="14" fill="#e0b44c"/>
  <rect x="34" y="56" width="12" height="30" fill="#c4956a"/>
  <rect x="36" y="58" width="8" height="26" fill="#d4a574"/>
  <rect x="36" y="58" width="8" height="2" fill="#e8c49a"/>
  <rect x="46" y="20" width="36" height="32" fill="#c4956a"/>
  <rect x="48" y="22" width="32" height="28" fill="#d4a574"/>
  <rect x="48" y="22" width="32" height="2" fill="#e8c49a"/>
  <rect x="50" y="24" width="6" height="4" fill="#0d0d0d"/>
  <rect x="72" y="24" width="6" height="4" fill="#0d0d0d"/>
  <rect x="58" y="32" width="12" height="2" fill="#0d0d0d"/>
  <rect x="78" y="18" width="4" height="22" fill="#1b1b1b"/>
  <rect x="79" y="20" width="2" height="18" fill="#4caf50"/>
</svg>
