<svg xmlns="http://www.w3.org/2000/svg" viewBox="0 0 128 128" width="128" height="128">
  <rect width="128" height="128" fill="#2a1f16"/>
  <ellipse cx="64" cy="118" rx="40" ry="6" fill="#1a1410"/>
  <!-- robe -->
  <rect x="36" y="52" width="56" height="60" fill="#4a3728"/>
  <rect x="40" y="56" width="48" height="54" fill="#5c4532"/>
  <rect x="44" y="60" width="40" height="48" fill="#6b5344"/>
  <!-- wraps on arms -->
  <rect x="20" y="56" width="16" height="8" fill="#e8d9bc"/>
  <rect x="22" y="58" width="12" height="4" fill="#f5ead4"/>
  <rect x="92" y="56" width="16" height="8" fill="#e8d9bc"/>
  <rect x="94" y="58" width="12" height="4" fill="#f5ead4"/>
  <!-- beads -->
  <circle cx="64" cy="48" r="12" fill="none" stroke="#3d2c1e" stroke-width="4"/>
  <circle cx="58" cy="44" r="3" fill="#4a3728"/>
  <circle cx="64" cy="42" r="3" fill="#5c4532"/>
  <circle cx="70" cy="44" r="3" fill="#4a3728"/>
  <circle cx="64" cy="50" r="3" fill="#5c4532"/>
  <!-- head -->
  <rect x="48" y="20" width="32" height="28" rx="2" fill="#a67c4a"/>
  <rect x="50" y="22" width="28" height="24" rx="1" fill="#b88a5c"/>
  <rect x="52" y="24" width="8" height="4" fill="#1a1410"/>
  <rect x="68" y="24" width="8" height="4" fill="#1a1410"/>
  <!-- seated legs -->
  <rect x="44" y="88" width="40" height="12" fill="#5c4532"/>
  <rect x="40" y="96" width="48" height="8" fill="#4a3728"/>
</svg>
