<svg xmlns="http://www.w3.org/2000/svg" width="16" height="16" viewBox="0 0 16 16">
  <rect width="16" height="16" fill="#000" fill-opacity="0"/>
  <rect x="0" y="0" width="2" height="2" fill="#000" fill-opacity="0.06"/>
  <rect x="4" y="0" width="2" height="2" fill="#000" fill-opacity="0.06"/>
  <rect x="8" y="0" width="2" height="2" fill="#000" fill-opacity="0.06"/>
  <rect x="12" y="0" width="2" height="2" fill="#000" fill-opacity="0.06"/>
  <rect x="2" y="2" width="2" height="2" fill="#000" fill-opacity="0.06"/>
  <rect x="6" y="2" width="2" height="2" fill="#000" fill-opacity="0.06"/>
  <rect x="10" y="2" width="2" height="2" fill="#000" fill-opacity="0.06"/>
  <rect x="14" y="2" width="2" height="2" fill="#000" fill-opacity="0.06"/>
  <rect x="0" y="4" width="2" height="2" fill="#000" fill-opacity="0.06"/>
  <rect x="4" y="4" width="2" height="2" fill="#000" fill-opacity="0.06"/>
  <rect x="8" y="4" width="2" height="2" fill="#000" fill-opacity="0.06"/>
  <rect x="12" y="4" width="2" height="2" fill="#000" fill-opacity="0.06"/>
  <rect x="2" y="6" width="2" height="2" fill="#000" fill-opacity="0.06"/>
  <rect x="6" y="6" width="2" height="2" fill="#000" fill-opacity="0.06"/>
  <rect x="10" y="6" width="2" height="2" fill="#000" fill-opacity="0.06"/>
  <rect x="14" y="6" width="2" height="2" fill="#000" fill-opacity="0.06"/>
  <rect x="0" y="8" width="2" height="2" fill="#000" fill-opacity="0.06"/>
  <rect x="4" y="8" width="2" height="2" fill="#000" fill-opacity="0.06"/>
  <rect x="8" y="8" width="2" height="2" fill="#000" fill-opacity="0.06"/>
  <rect x="12" y="8" width="2" height="2" fill="#000" fill-opacity="0.06"/>
  <rect x="2" y="10" width="2" height="2" fill="#000" fill-opacity="0.06"/>
  <rect x="6" y="10" width="2" height="2" fill="#000" fill-opacity="0.06"/>
  <rect x="10" y="10" width="2" height="2" fill="#000" fill-opacity="0.06"/>
  <rect x="14" y="10" width="2" height="2" fill="#000" fill-opacity="0.06"/>
  <rect x="0" y="12" width="2" height="2" fill="#000" fill-opacity="0.06"/>
  <rect x="4" y="12" width="2" height="2" fill="#000" fill-opacity="0.06"/>
  <rect x="8" y="12" width="2" height="2" fill="#000" fill-opacity="0.06"/>
  <rect x="12" y="12" width="2" height="2" fill="#000" fill-opacity="0.06"/>
</svg>
